<?xml version="1.0" encoding="utf-8"?>
<!-- Generator: Adobe Illustrator 14.0.0, SVG Export Plug-In . SVG Version: 6.00 Build 43363)  -->
<!DOCTYPE svg PUBLIC "-//W3C//DTD SVG 1.1//EN" "http://www.w3.org/Graphics/SVG/1.1/DTD/svg11.dtd">
<svg version="1.1" id="Layer_1" xmlns="http://www.w3.org/2000/svg" xmlns:xlink="http://www.w3.org/1999/xlink" x="0px" y="0px"
	 width="300px" height="87px" viewBox="0 0 300 87" enable-background="new 0 0 300 87" xml:space="preserve">
<g>
	<radialGradient id="SVGID_1_" cx="47.998" cy="31.1997" r="22.2176" gradientUnits="userSpaceOnUse">
		<stop  offset="0" style="stop-color:#FCBA63"/>
		<stop  offset="0.2141" style="stop-color:#FCB761"/>
		<stop  offset="0.3909" style="stop-color:#FAAC5A"/>
		<stop  offset="0.5543" style="stop-color:#F89B4F"/>
		<stop  offset="0.7098" style="stop-color:#F5833F"/>
		<stop  offset="0.8583" style="stop-color:#F1642A"/>
		<stop  offset="0.8957" style="stop-color:#F05B24"/>
	</radialGradient>
	<path fill="url(#SVGID_1_)" d="M63.291,43.309c0,10.976-8.897,19.89-19.887,19.89c-10.991,0-19.903-8.914-19.903-19.89
		c0-10.986,8.913-19.886,19.903-19.886C54.394,23.423,63.291,32.323,63.291,43.309z"/>
	<path fill="#9E9E9E" d="M43.404,76.729c-18.447,0-33.433-14.989-33.433-33.42c0-18.445,14.985-33.427,33.433-33.427
		c18.433,0,33.417,14.981,33.417,33.427C76.82,61.74,61.837,76.729,43.404,76.729L43.404,76.729z M43.404,11.158
		c-17.74,0-32.166,14.418-32.166,32.151c0,17.738,14.426,32.158,32.166,32.158c17.731,0,32.154-14.42,32.154-32.158
		C75.558,25.576,61.135,11.158,43.404,11.158L43.404,11.158z"/>
	<polygon fill="#9E9E9E" points="86.792,42.665 44.036,42.665 44.036,-0.088 42.761,-0.088 42.761,42.665 0,42.665 0,43.938 
		42.761,43.938 42.761,86.715 44.036,86.715 44.036,43.938 86.792,43.938 	"/>
	<path fill="#FFFFFF" d="M44.036,23.46c-0.207-0.008-0.428-0.037-0.632-0.037c-0.219,0-0.424,0.028-0.643,0.037v19.205H23.546
		c0,0.221-0.045,0.426-0.045,0.644c0,0.211,0.045,0.428,0.045,0.629h19.215v19.22c0.219,0.016,0.424,0.041,0.643,0.041
		c0.204,0,0.425-0.025,0.632-0.041v-19.22h19.216c0.012-0.202,0.039-0.418,0.039-0.629c0-0.218-0.027-0.423-0.039-0.644H44.036
		V23.46z"/>
	<path fill="#3D3D3C" d="M121.696,54.766v8.693h-14.534c-6.691,0-11.455-1.151-15.22-4.852c-3.678-3.608-5.989-9.146-5.989-15.215
		c0-6.389,2.21-11.99,5.989-15.604c3.765-3.615,8.528-4.847,15.22-4.847h14.534v8.761h-11.378c-9.159,0-13.225,2.309-13.225,11.689
		c0,4.851,1.472,8.066,4.768,10.07c2.153,1.303,4.848,1.303,8.457,1.303H121.696z"/>
	<path fill="#3D3D3C" d="M154.739,54.531V22.942h10.685v39.435c0,10.603-4.831,15.756-15.218,15.756H129.22v-8.219h19.133
		c4.162,0,6.387-2.09,6.387-5.768c0-0.23,0-0.466,0-0.688h-9.45c-11.84,0-16.841-4.145-16.841-15.519V22.942h10.608v24.146
		c0,6.071,1.234,7.443,7.07,7.443H154.739z"/>
	<path fill="#3D3D3C" d="M192.017,63.459c-12.605,0-19.763-7.856-19.763-20.766c0-5.37,1.472-9.833,4.381-13.516
		c3.845-4.832,8.765-6.236,16.069-6.236h9.148V8.272h10.684v55.187H192.017z M201.853,31.703h-6.456
		c-8.297,0-11.924,2.997-11.924,11.758c0,8.46,3.16,11.304,11.087,11.304h7.293V31.703z"/>
	<path fill="#3D3D3C" d="M244.581,22.942c11.067,0,16.675,5.16,16.675,15.151v25.366H232.51c-8.078,0-12.528-4.229-12.528-11.684
		c0-9.387,4.849-12.928,16.139-12.928h14.076c0-0.371,0-0.691,0-0.989c0-5.138-2.924-6.538-9.693-6.538h-17.83v-8.379H244.581z
		 M250.265,55.302v-8.38h-12.592c-4.531,0-6.622,0.934-6.622,4.537c0,3.375,1.927,3.843,5.853,3.843H250.265z"/>
	<path fill="#3D3D3C" d="M288.63,22.942c8.434,0,11.37,2.689,11.37,10.22v6.78h-10.229V34.7c0-3.601-1.224-3.994-4.686-3.994h-3.761
		v32.752h-10.69V22.942H288.63z"/>
</g>
</svg>
